<svg id="visual" viewBox="0 0 1440 808" width="1440" height="808" xmlns="http://www.w3.org/2000/svg" xmlns:xlink="http://www.w3.org/1999/xlink" version="1.1"><rect x="0" y="0" width="1440" height="808" fill="#16334f"></rect><defs><linearGradient id="grad1_0" x1="43.9%" y1="100%" x2="100%" y2="0%"><stop offset="14.356435643564355%" stop-color="#39a4c7" stop-opacity="1"></stop><stop offset="85.64356435643565%" stop-color="#39a4c7" stop-opacity="1"></stop></linearGradient></defs><defs><linearGradient id="grad1_1" x1="43.9%" y1="100%" x2="100%" y2="0%"><stop offset="14.356435643564355%" stop-color="#39a4c7" stop-opacity="1"></stop><stop offset="85.64356435643565%" stop-color="#16334f" stop-opacity="1"></stop></linearGradient></defs><defs><linearGradient id="grad2_0" x1="0%" y1="100%" x2="56.1%" y2="0%"><stop offset="14.356435643564355%" stop-color="#39a4c7" stop-opacity="1"></stop><stop offset="85.64356435643565%" stop-color="#39a4c7" stop-opacity="1"></stop></linearGradient></defs><defs><linearGradient id="grad2_1" x1="0%" y1="100%" x2="56.1%" y2="0%"><stop offset="14.356435643564355%" stop-color="#16334f" stop-opacity="1"></stop><stop offset="85.64356435643565%" stop-color="#39a4c7" stop-opacity="1"></stop></linearGradient></defs><g transform="translate(1440, 808)"><path d="M-455 0C-464.6 -66.8 -474.2 -133.6 -447.9 -185.5C-421.6 -237.5 -359.4 -274.6 -306.2 -306.2C-253 -337.8 -208.7 -363.8 -159.2 -384.3C-109.7 -404.9 -54.8 -419.9 0 -435L0 0Z" fill="#29688b"></path><path d="M-227.5 0C-232.3 -33.4 -237.1 -66.8 -223.9 -92.8C-210.8 -118.7 -179.7 -137.3 -153.1 -153.1C-126.5 -168.9 -104.4 -181.9 -79.6 -192.2C-54.8 -202.4 -27.4 -210 0 -217.5L0 0Z" fill="#39a4c7"></path></g><g transform="translate(0, 0)"><path d="M400 0C421.1 60.4 442.2 120.8 434.2 179.9C426.2 239 389.1 296.8 342.8 342.8C296.6 388.8 241.2 423.1 182.5 440.7C123.9 458.3 61.9 459.1 0 460L0 0Z" fill="#29688b"></path><path d="M200 0C210.6 30.2 221.1 60.4 217.1 89.9C213.1 119.5 194.5 148.4 171.4 171.4C148.3 194.4 120.6 211.6 91.3 220.3C61.9 229.1 31 229.6 0 230L0 0Z" fill="#39a4c7"></path></g></svg>