<svg id="visual" viewBox="0 0 1440 740" width="1440" height="740" xmlns="http://www.w3.org/2000/svg" xmlns:xlink="http://www.w3.org/1999/xlink" version="1.1"><g stroke-width="1" stroke-linejoin="bevel"><path d="M692 366L660.1 404L753 445.5Z" fill="#031526" stroke="#031526"></path><path d="M753 445.5L774.9 340L692 366Z" fill="#122c46" stroke="#122c46"></path><path d="M660.1 404L673 508L753 445.5Z" fill="#001122" stroke="#001122"></path><path d="M847.9 417.5L798.9 326.5L774.9 340Z" fill="#091f33" stroke="#091f33"></path><path d="M774.9 340L753 297.5L692 366Z" fill="#05182b" stroke="#05182b"></path><path d="M798.9 326.5L753 297.5L774.9 340Z" fill="#071b2f" stroke="#071b2f"></path><path d="M660.1 404L621.1 502.5L673 508Z" fill="#05182b" stroke="#05182b"></path><path d="M872.9 585L847.9 417.5L753 445.5Z" fill="#0b2238" stroke="#0b2238"></path><path d="M753 445.5L847.9 417.5L774.9 340Z" fill="#122c46" stroke="#122c46"></path><path d="M753 297.5L618.1 260.5L692 366Z" fill="#14304a" stroke="#14304a"></path><path d="M692 366L618.1 260.5L660.1 404Z" fill="#091f33" stroke="#091f33"></path><path d="M660.1 404L531.3 430.5L621.1 502.5Z" fill="#16334f" stroke="#16334f"></path><path d="M492.3 347L531.3 430.5L660.1 404Z" fill="#071b2f" stroke="#071b2f"></path><path d="M942.7 526L916.7 414.5L847.9 417.5Z" fill="#031526" stroke="#031526"></path><path d="M847.9 417.5L916.7 414.5L798.9 326.5Z" fill="#0b2238" stroke="#0b2238"></path><path d="M798.9 326.5L756 205L753 297.5Z" fill="#0d253c" stroke="#0d253c"></path><path d="M753 297.5L756 205L618.1 260.5Z" fill="#14304a" stroke="#14304a"></path><path d="M889.7 229L756 205L798.9 326.5Z" fill="#071b2f" stroke="#071b2f"></path><path d="M492.3 523L577.1 586L621.1 502.5Z" fill="#071b2f" stroke="#071b2f"></path><path d="M621.1 502.5L577.1 586L673 508Z" fill="#031526" stroke="#031526"></path><path d="M673 508L739 633.5L753 445.5Z" fill="#14304a" stroke="#14304a"></path><path d="M646.1 646.5L739 633.5L673 508Z" fill="#122c46" stroke="#122c46"></path><path d="M618.1 260.5L492.3 347L660.1 404Z" fill="#122c46" stroke="#122c46"></path><path d="M531.3 430.5L492.3 523L621.1 502.5Z" fill="#122c46" stroke="#122c46"></path><path d="M739 633.5L872.9 585L753 445.5Z" fill="#122c46" stroke="#122c46"></path><path d="M756 205L594.1 206L618.1 260.5Z" fill="#031526" stroke="#031526"></path><path d="M618.1 260.5L494.3 227L492.3 347Z" fill="#122c46" stroke="#122c46"></path><path d="M577.1 586L646.1 646.5L673 508Z" fill="#16334f" stroke="#16334f"></path><path d="M373.4 455.5L492.3 523L531.3 430.5Z" fill="#05182b" stroke="#05182b"></path><path d="M577.1 586L545.3 601.5L646.1 646.5Z" fill="#0d253c" stroke="#0d253c"></path><path d="M492.3 523L545.3 601.5L577.1 586Z" fill="#091f33" stroke="#091f33"></path><path d="M872.9 585L942.7 526L847.9 417.5Z" fill="#091f33" stroke="#091f33"></path><path d="M967.7 335L798.9 326.5L916.7 414.5Z" fill="#14304a" stroke="#14304a"></path><path d="M958.7 290.5L889.7 229L798.9 326.5Z" fill="#122c46" stroke="#122c46"></path><path d="M989.6 325.5L967.7 335L1035.6 344Z" fill="#091f33" stroke="#091f33"></path><path d="M967.7 335L958.7 290.5L798.9 326.5Z" fill="#001122" stroke="#001122"></path><path d="M594.1 206L494.3 227L618.1 260.5Z" fill="#071b2f" stroke="#071b2f"></path><path d="M889.7 229L838.9 156L756 205Z" fill="#071b2f" stroke="#071b2f"></path><path d="M756 205L710 119.5L594.1 206Z" fill="#091f33" stroke="#091f33"></path><path d="M886.7 93.5L838.9 156L889.7 229Z" fill="#0d253c" stroke="#0d253c"></path><path d="M1035.6 344L967.7 335L916.7 414.5Z" fill="#001122" stroke="#001122"></path><path d="M967.7 335L989.6 325.5L958.7 290.5Z" fill="#05182b" stroke="#05182b"></path><path d="M838.9 156L710 119.5L756 205Z" fill="#091f33" stroke="#091f33"></path><path d="M594.1 206L512.3 82.5L494.3 227Z" fill="#0f2941" stroke="#0f2941"></path><path d="M391.4 197L467.3 227.5L424.4 94.5Z" fill="#16334f" stroke="#16334f"></path><path d="M494.3 227L467.3 227.5L492.3 347Z" fill="#001122" stroke="#001122"></path><path d="M373.4 455.5L425.4 559L492.3 523Z" fill="#16334f" stroke="#16334f"></path><path d="M739 633.5L860.9 693.5L872.9 585Z" fill="#14304a" stroke="#14304a"></path><path d="M872.9 585L950.7 674.5L942.7 526Z" fill="#05182b" stroke="#05182b"></path><path d="M691 740L860.9 693.5L739 633.5Z" fill="#122c46" stroke="#122c46"></path><path d="M492.3 523L425.4 559L545.3 601.5Z" fill="#001122" stroke="#001122"></path><path d="M625.1 740L691 740L646.1 646.5Z" fill="#16334f" stroke="#16334f"></path><path d="M373.4 455.5L531.3 430.5L492.3 347Z" fill="#071b2f" stroke="#071b2f"></path><path d="M625.1 740L646.1 646.5L539.3 740Z" fill="#0b2238" stroke="#0b2238"></path><path d="M646.1 646.5L691 740L739 633.5Z" fill="#071b2f" stroke="#071b2f"></path><path d="M1070.6 432.5L1035.6 344L916.7 414.5Z" fill="#0b2238" stroke="#0b2238"></path><path d="M989.6 325.5L1061.6 141L958.7 290.5Z" fill="#16334f" stroke="#16334f"></path><path d="M1030.6 115.5L886.7 93.5L889.7 229Z" fill="#0d253c" stroke="#0d253c"></path><path d="M1070.6 432.5L916.7 414.5L942.7 526Z" fill="#071b2f" stroke="#071b2f"></path><path d="M693 0L662.1 83.5L710 119.5Z" fill="#001122" stroke="#001122"></path><path d="M710 119.5L662.1 83.5L594.1 206Z" fill="#0f2941" stroke="#0f2941"></path><path d="M539.3 740L646.1 646.5L545.3 601.5Z" fill="#0d253c" stroke="#0d253c"></path><path d="M353.6 405L373.4 455.5L492.3 347Z" fill="#05182b" stroke="#05182b"></path><path d="M388.4 278.5L377.4 326L492.3 347Z" fill="#122c46" stroke="#122c46"></path><path d="M467.3 227.5L388.4 278.5L492.3 347Z" fill="#14304a" stroke="#14304a"></path><path d="M391.4 197L388.4 278.5L467.3 227.5Z" fill="#14304a" stroke="#14304a"></path><path d="M907.7 740L950.7 674.5L860.9 693.5Z" fill="#14304a" stroke="#14304a"></path><path d="M860.9 693.5L950.7 674.5L872.9 585Z" fill="#091f33" stroke="#091f33"></path><path d="M285.6 308.5L353.6 405L377.4 326Z" fill="#0b2238" stroke="#0b2238"></path><path d="M377.4 326L353.6 405L492.3 347Z" fill="#001122" stroke="#001122"></path><path d="M353.6 405L353.6 431.5L373.4 455.5Z" fill="#031526" stroke="#031526"></path><path d="M257.6 556L407.4 662.5L425.4 559Z" fill="#001122" stroke="#001122"></path><path d="M1059.6 601L1070.6 432.5L942.7 526Z" fill="#071b2f" stroke="#071b2f"></path><path d="M691 740L866.9 740L860.9 693.5Z" fill="#0b2238" stroke="#0b2238"></path><path d="M1030.6 115.5L889.7 229L958.7 290.5Z" fill="#0b2238" stroke="#0b2238"></path><path d="M838.9 156L841.9 59.5L710 119.5Z" fill="#071b2f" stroke="#071b2f"></path><path d="M407.4 662.5L539.3 740L545.3 601.5Z" fill="#001122" stroke="#001122"></path><path d="M886.7 93.5L841.9 59.5L838.9 156Z" fill="#091f33" stroke="#091f33"></path><path d="M866.9 740L907.7 740L860.9 693.5Z" fill="#0d253c" stroke="#0d253c"></path><path d="M512.3 82.5L467.3 227.5L494.3 227Z" fill="#031526" stroke="#031526"></path><path d="M388.4 278.5L285.6 308.5L377.4 326Z" fill="#0f2941" stroke="#0f2941"></path><path d="M662.1 83.5L512.3 82.5L594.1 206Z" fill="#122c46" stroke="#122c46"></path><path d="M556.3 0L512.3 82.5L662.1 83.5Z" fill="#122c46" stroke="#122c46"></path><path d="M1065.6 740L1012.6 659.5L950.7 674.5Z" fill="#14304a" stroke="#14304a"></path><path d="M950.7 674.5L1012.6 659.5L942.7 526Z" fill="#0b2238" stroke="#0b2238"></path><path d="M257.6 556L425.4 559L373.4 455.5Z" fill="#0d253c" stroke="#0d253c"></path><path d="M425.4 559L407.4 662.5L545.3 601.5Z" fill="#001122" stroke="#001122"></path><path d="M1012.6 659.5L1059.6 601L942.7 526Z" fill="#0f2941" stroke="#0f2941"></path><path d="M841.9 59.5L693 0L710 119.5Z" fill="#0b2238" stroke="#0b2238"></path><path d="M693 0L640.1 0L662.1 83.5Z" fill="#071b2f" stroke="#071b2f"></path><path d="M396.4 0L424.4 94.5L512.3 82.5Z" fill="#05182b" stroke="#05182b"></path><path d="M512.3 82.5L424.4 94.5L467.3 227.5Z" fill="#0d253c" stroke="#0d253c"></path><path d="M1070.6 432.5L1138.4 345L1035.6 344Z" fill="#14304a" stroke="#14304a"></path><path d="M1061.6 141L1030.6 115.5L958.7 290.5Z" fill="#0f2941" stroke="#0f2941"></path><path d="M1164.4 426.5L1138.4 345L1070.6 432.5Z" fill="#05182b" stroke="#05182b"></path><path d="M1061.6 141L989.6 325.5L1149.4 264.5Z" fill="#071b2f" stroke="#071b2f"></path><path d="M879.7 0L855.9 0L841.9 59.5Z" fill="#0d253c" stroke="#0d253c"></path><path d="M841.9 59.5L855.9 0L693 0Z" fill="#16334f" stroke="#16334f"></path><path d="M310.6 208L285.6 308.5L388.4 278.5Z" fill="#122c46" stroke="#122c46"></path><path d="M353.6 405L247.7 519L353.6 431.5Z" fill="#0d253c" stroke="#0d253c"></path><path d="M289.6 740L402.4 740L407.4 662.5Z" fill="#031526" stroke="#031526"></path><path d="M310.6 208L388.4 278.5L391.4 197Z" fill="#0b2238" stroke="#0b2238"></path><path d="M879.7 0L841.9 59.5L886.7 93.5Z" fill="#16334f" stroke="#16334f"></path><path d="M640.1 0L556.3 0L662.1 83.5Z" fill="#001122" stroke="#001122"></path><path d="M1149.4 264.5L989.6 325.5L1035.6 344Z" fill="#16334f" stroke="#16334f"></path><path d="M1022.6 0L879.7 0L886.7 93.5Z" fill="#05182b" stroke="#05182b"></path><path d="M247.7 519L373.4 455.5L353.6 431.5Z" fill="#091f33" stroke="#091f33"></path><path d="M407.4 662.5L402.4 740L539.3 740Z" fill="#122c46" stroke="#122c46"></path><path d="M292.6 113.5L310.6 208L391.4 197Z" fill="#0b2238" stroke="#0b2238"></path><path d="M1196.3 477.5L1164.4 426.5L1070.6 432.5Z" fill="#16334f" stroke="#16334f"></path><path d="M1012.6 659.5L1111.4 631.5L1059.6 601Z" fill="#001122" stroke="#001122"></path><path d="M1059.6 601L1166.4 577L1070.6 432.5Z" fill="#122c46" stroke="#122c46"></path><path d="M1065.6 740L1111.4 631.5L1012.6 659.5Z" fill="#122c46" stroke="#122c46"></path><path d="M1244.3 333L1149.4 264.5L1138.4 345Z" fill="#001122" stroke="#001122"></path><path d="M1138.4 345L1149.4 264.5L1035.6 344Z" fill="#0b2238" stroke="#0b2238"></path><path d="M175.7 330L247.7 519L353.6 405Z" fill="#0f2941" stroke="#0f2941"></path><path d="M247.7 519L257.6 556L373.4 455.5Z" fill="#001122" stroke="#001122"></path><path d="M907.7 740L1065.6 740L950.7 674.5Z" fill="#091f33" stroke="#091f33"></path><path d="M1111.4 631.5L1166.4 577L1059.6 601Z" fill="#091f33" stroke="#091f33"></path><path d="M1197.3 585L1166.4 577L1111.4 631.5Z" fill="#0f2941" stroke="#0f2941"></path><path d="M1166.4 577L1196.3 477.5L1070.6 432.5Z" fill="#0d253c" stroke="#0d253c"></path><path d="M1164.4 426.5L1244.3 333L1138.4 345Z" fill="#0d253c" stroke="#0d253c"></path><path d="M1065.6 740L1097.4 740L1111.4 631.5Z" fill="#0d253c" stroke="#0d253c"></path><path d="M1210.3 740L1197.3 585L1111.4 631.5Z" fill="#05182b" stroke="#05182b"></path><path d="M1166.4 577L1197.3 585L1196.3 477.5Z" fill="#16334f" stroke="#16334f"></path><path d="M1125.4 77.5L1022.6 0L1030.6 115.5Z" fill="#16334f" stroke="#16334f"></path><path d="M1030.6 115.5L1022.6 0L886.7 93.5Z" fill="#071b2f" stroke="#071b2f"></path><path d="M1149.4 264.5L1170.4 181L1061.6 141Z" fill="#0b2238" stroke="#0b2238"></path><path d="M1234.3 261.5L1170.4 181L1149.4 264.5Z" fill="#031526" stroke="#031526"></path><path d="M396.4 0L292.6 113.5L424.4 94.5Z" fill="#0f2941" stroke="#0f2941"></path><path d="M424.4 94.5L292.6 113.5L391.4 197Z" fill="#031526" stroke="#031526"></path><path d="M310.6 208L212.7 238.5L285.6 308.5Z" fill="#16334f" stroke="#16334f"></path><path d="M285.6 308.5L175.7 330L353.6 405Z" fill="#001122" stroke="#001122"></path><path d="M257.6 556L268.6 682.5L407.4 662.5Z" fill="#0d253c" stroke="#0d253c"></path><path d="M206.7 675.5L268.6 682.5L257.6 556Z" fill="#122c46" stroke="#122c46"></path><path d="M1125.4 77.5L1030.6 115.5L1061.6 141Z" fill="#091f33" stroke="#091f33"></path><path d="M556.3 0L396.4 0L512.3 82.5Z" fill="#0d253c" stroke="#0d253c"></path><path d="M255.7 140.5L212.7 238.5L310.6 208Z" fill="#16334f" stroke="#16334f"></path><path d="M268.6 0L255.7 140.5L292.6 113.5Z" fill="#05182b" stroke="#05182b"></path><path d="M292.6 113.5L255.7 140.5L310.6 208Z" fill="#091f33" stroke="#091f33"></path><path d="M268.6 682.5L289.6 740L407.4 662.5Z" fill="#16334f" stroke="#16334f"></path><path d="M1170.4 181L1125.4 77.5L1061.6 141Z" fill="#05182b" stroke="#05182b"></path><path d="M1290.1 277.5L1244.3 333L1352.1 389Z" fill="#16334f" stroke="#16334f"></path><path d="M1196.3 477.5L1244.3 333L1164.4 426.5Z" fill="#031526" stroke="#031526"></path><path d="M1258.3 48.5L1215.3 0L1125.4 77.5Z" fill="#05182b" stroke="#05182b"></path><path d="M212.7 238.5L175.7 330L285.6 308.5Z" fill="#14304a" stroke="#14304a"></path><path d="M247.7 519L133.9 592L257.6 556Z" fill="#091f33" stroke="#091f33"></path><path d="M1244.3 333L1234.3 261.5L1149.4 264.5Z" fill="#16334f" stroke="#16334f"></path><path d="M175.7 330L157.7 492.5L247.7 519Z" fill="#031526" stroke="#031526"></path><path d="M268.6 682.5L247.7 740L289.6 740Z" fill="#05182b" stroke="#05182b"></path><path d="M206.7 675.5L247.7 740L268.6 682.5Z" fill="#001122" stroke="#001122"></path><path d="M133.9 592L206.7 675.5L257.6 556Z" fill="#0d253c" stroke="#0d253c"></path><path d="M212.7 238.5L173.7 203L175.7 330Z" fill="#122c46" stroke="#122c46"></path><path d="M0 524L133.9 592L157.7 492.5Z" fill="#001122" stroke="#001122"></path><path d="M255.7 140.5L173.7 203L212.7 238.5Z" fill="#091f33" stroke="#091f33"></path><path d="M133.9 86.5L173.7 203L255.7 140.5Z" fill="#122c46" stroke="#122c46"></path><path d="M1290.1 277.5L1252.3 196L1234.3 261.5Z" fill="#05182b" stroke="#05182b"></path><path d="M1234.3 261.5L1252.3 196L1170.4 181Z" fill="#071b2f" stroke="#071b2f"></path><path d="M1215.3 0L1122.4 0L1125.4 77.5Z" fill="#122c46" stroke="#122c46"></path><path d="M1125.4 77.5L1122.4 0L1022.6 0Z" fill="#05182b" stroke="#05182b"></path><path d="M1244.3 333L1290.1 277.5L1234.3 261.5Z" fill="#0f2941" stroke="#0f2941"></path><path d="M1352.1 389L1244.3 333L1196.3 477.5Z" fill="#05182b" stroke="#05182b"></path><path d="M1097.4 740L1210.3 740L1111.4 631.5Z" fill="#001122" stroke="#001122"></path><path d="M1197.3 585L1328.1 523L1196.3 477.5Z" fill="#071b2f" stroke="#071b2f"></path><path d="M93.9 418L157.7 492.5L175.7 330Z" fill="#0f2941" stroke="#0f2941"></path><path d="M157.7 492.5L133.9 592L247.7 519Z" fill="#001122" stroke="#001122"></path><path d="M206.7 675.5L83.9 740L247.7 740Z" fill="#14304a" stroke="#14304a"></path><path d="M396.4 0L268.6 0L292.6 113.5Z" fill="#122c46" stroke="#122c46"></path><path d="M80.9 412.5L93.9 418L175.7 330Z" fill="#05182b" stroke="#05182b"></path><path d="M1281.3 675.5L1328.1 523L1197.3 585Z" fill="#031526" stroke="#031526"></path><path d="M1210.3 740L1281.3 675.5L1197.3 585Z" fill="#0f2941" stroke="#0f2941"></path><path d="M69.9 254.5L80.9 412.5L175.7 330Z" fill="#0b2238" stroke="#0b2238"></path><path d="M93.9 418L0 524L157.7 492.5Z" fill="#14304a" stroke="#14304a"></path><path d="M0 603.5L115.9 637.5L133.9 592Z" fill="#031526" stroke="#031526"></path><path d="M133.9 592L115.9 637.5L206.7 675.5Z" fill="#16334f" stroke="#16334f"></path><path d="M1328.1 523L1352.1 389L1196.3 477.5Z" fill="#122c46" stroke="#122c46"></path><path d="M1258.3 48.5L1170.4 181L1252.3 196Z" fill="#001122" stroke="#001122"></path><path d="M1258.3 48.5L1125.4 77.5L1170.4 181Z" fill="#0f2941" stroke="#0f2941"></path><path d="M1258.3 48.5L1252.3 196L1354.1 72.5Z" fill="#071b2f" stroke="#071b2f"></path><path d="M1358.1 196L1252.3 196L1290.1 277.5Z" fill="#031526" stroke="#031526"></path><path d="M173.7 203L69.9 254.5L175.7 330Z" fill="#0f2941" stroke="#0f2941"></path><path d="M53.9 234L69.9 254.5L173.7 203Z" fill="#14304a" stroke="#14304a"></path><path d="M172.7 0L133.9 86.5L255.7 140.5Z" fill="#031526" stroke="#031526"></path><path d="M1281.3 675.5L1327.1 681.5L1328.1 523Z" fill="#05182b" stroke="#05182b"></path><path d="M1328.1 523L1380.1 479.5L1352.1 389Z" fill="#0d253c" stroke="#0d253c"></path><path d="M1343.1 740L1327.1 681.5L1281.3 675.5Z" fill="#091f33" stroke="#091f33"></path><path d="M1440 510.5L1380.1 479.5L1440 568Z" fill="#071b2f" stroke="#071b2f"></path><path d="M1440 243.5L1358.1 196L1290.1 277.5Z" fill="#0b2238" stroke="#0b2238"></path><path d="M268.6 0L172.7 0L255.7 140.5Z" fill="#0b2238" stroke="#0b2238"></path><path d="M133.9 86.5L53.9 234L173.7 203Z" fill="#0b2238" stroke="#0b2238"></path><path d="M0 359L0 420.5L80.9 412.5Z" fill="#071b2f" stroke="#071b2f"></path><path d="M0 248.5L53.9 234L0 134Z" fill="#0f2941" stroke="#0f2941"></path><path d="M1440 243.5L1290.1 277.5L1352.1 389Z" fill="#071b2f" stroke="#071b2f"></path><path d="M0 603.5L83.9 740L115.9 637.5Z" fill="#071b2f" stroke="#071b2f"></path><path d="M115.9 637.5L83.9 740L206.7 675.5Z" fill="#091f33" stroke="#091f33"></path><path d="M0 524L93.9 418L80.9 412.5Z" fill="#122c46" stroke="#122c46"></path><path d="M1210.3 740L1343.1 740L1281.3 675.5Z" fill="#14304a" stroke="#14304a"></path><path d="M1440 568L1380.1 479.5L1328.1 523Z" fill="#14304a" stroke="#14304a"></path><path d="M0 359L80.9 412.5L69.9 254.5Z" fill="#0b2238" stroke="#0b2238"></path><path d="M0 248.5L0 359L69.9 254.5Z" fill="#16334f" stroke="#16334f"></path><path d="M1354.1 72.5L1293.1 0L1258.3 48.5Z" fill="#05182b" stroke="#05182b"></path><path d="M1258.3 48.5L1293.1 0L1215.3 0Z" fill="#071b2f" stroke="#071b2f"></path><path d="M0 420.5L0 524L80.9 412.5Z" fill="#0d253c" stroke="#0d253c"></path><path d="M1358.1 196L1354.1 72.5L1252.3 196Z" fill="#122c46" stroke="#122c46"></path><path d="M1440 129.5L1354.1 72.5L1358.1 196Z" fill="#16334f" stroke="#16334f"></path><path d="M1440 510.5L1440 373L1380.1 479.5Z" fill="#05182b" stroke="#05182b"></path><path d="M1380.1 479.5L1440 373L1352.1 389Z" fill="#122c46" stroke="#122c46"></path><path d="M0 134L53.9 234L133.9 86.5Z" fill="#05182b" stroke="#05182b"></path><path d="M53.9 234L0 248.5L69.9 254.5Z" fill="#14304a" stroke="#14304a"></path><path d="M1440 568L1328.1 523L1327.1 681.5Z" fill="#091f33" stroke="#091f33"></path><path d="M0 524L0 603.5L133.9 592Z" fill="#031526" stroke="#031526"></path><path d="M1440 679.5L1440 568L1327.1 681.5Z" fill="#122c46" stroke="#122c46"></path><path d="M1440 373L1440 243.5L1352.1 389Z" fill="#14304a" stroke="#14304a"></path><path d="M172.7 0L80.9 0L133.9 86.5Z" fill="#122c46" stroke="#122c46"></path><path d="M1440 243.5L1440 196L1358.1 196Z" fill="#071b2f" stroke="#071b2f"></path><path d="M0 71.5L0 134L133.9 86.5Z" fill="#031526" stroke="#031526"></path><path d="M1343.1 740L1440 679.5L1327.1 681.5Z" fill="#16334f" stroke="#16334f"></path><path d="M0 603.5L0 740L83.9 740Z" fill="#0b2238" stroke="#0b2238"></path><path d="M1440 196L1440 129.5L1358.1 196Z" fill="#031526" stroke="#031526"></path><path d="M1354.1 72.5L1440 0L1293.1 0Z" fill="#001122" stroke="#001122"></path><path d="M80.9 0L0 71.5L133.9 86.5Z" fill="#16334f" stroke="#16334f"></path><path d="M1343.1 740L1440 740L1440 679.5Z" fill="#0b2238" stroke="#0b2238"></path><path d="M80.9 0L0 0L0 71.5Z" fill="#001122" stroke="#001122"></path><path d="M1440 129.5L1440 0L1354.1 72.5Z" fill="#091f33" stroke="#091f33"></path></g></svg>